<svg viewBox="0 0 640 400" data-background-color="#e65728" preserveAspectRatio="xMidYMid meet" height="400" width="640"
    xmlns="http://www.w3.org/2000/svg"
    xmlns:xlink="http://www.w3.org/1999/xlink">
    <rect width="640" height="400" x="0" y="0" opacity="1" fill="#e65728" data-fill-palette-color="background" id="background"></rect>
    <g id="tight-bounds" transform="matrix(1,0,0,1,122.24000000000001,149.28880829051423)">
        <svg viewBox="0 0 395.52 101.42238341897152" height="101.42238341897152" width="395.52">
            <g>
                <svg viewBox="0 0 397.4975999999999 101.92949533606637" height="101.42238341897152" width="395.52">
                    <g>
                        <rect width="397.4975999999999" height="3.121965817298093" x="0" y="56.01596976391254" fill="#ffffff" opacity="1" stroke-width="0" stroke="transparent" fill-opacity="1" class="rect-o-0" data-fill-palette-color="secondary" rx="1%" id="o-0" data-palette-color="#ffffff"></rect>
                    </g>
                    <g transform="matrix(1,0,0,1,0.9887999999999693,67.31062096680773)">
                        <svg viewBox="0 0 395.52 34.618874369258634" height="34.618874369258634" width="395.52">
                            <g id="textblocktransform">
                                <svg viewBox="0 0 395.52 34.618874369258634" height="34.618874369258634" width="395.52" id="textblock">
                                    <g>
                                        <svg viewBox="0 0 395.52 34.618874369258634" height="34.618874369258634" width="395.52">
                                            <g transform="matrix(1,0,0,1,0,0)">
                                                <svg width="395.52" viewBox="4.579999923706055 -33.75 390.71002197265625 34.209999084472656" height="34.618874369258634" data-palette-color="#ffffff">
                                                    <path d="M8.44-3.46L23.1-3.46 23.1 0 4.58 0 4.58-33.27 23.1-33.27 23.1-29.83 8.44-29.83 8.44-19.11 22.22-19.11 22.22-15.7 8.44-15.7 8.44-3.46ZM34.05-21.16L34.05-21.16 34.05 0 30.48 0 30.48-33.27 36.3-33.27 46.84-5.81 47.01-5.81 57.63-33.27 63.42-33.27 63.42 0 59.55 0 59.55-21.44Q59.55-25.28 59.88-29.45L59.88-29.45 59.68-29.45 48.3 0 45.19 0 33.92-29.47 33.74-29.47Q34.05-25.99 34.05-21.16ZM81.26-24.37L77.35-14.05 88.09-14.05 84.22-24.37Q83.44-26.49 82.68-29.17L82.68-29.17Q82.22-27.1 81.26-24.37L81.26-24.37ZM84.37-33.39L97.44 0 93.45 0 89.3-10.57 75.98-10.57 71.89 0 67.97 0 81.11-33.39 84.37-33.39ZM105.88-33.27L105.88 0 102.01 0 102.01-33.27 105.88-33.27ZM133.53-3.51L133.53 0 115.01 0 115.01-33.27 118.87-33.27 118.87-3.51 133.53-3.51ZM173.42-29.83L162.88-29.83 162.88 0 159.01 0 159.01-29.83 148.47-29.83 148.47-33.27 173.42-33.27 173.42-29.83ZM182.29-3.46L196.95-3.46 196.95 0 178.42 0 178.42-33.27 196.95-33.27 196.95-29.83 182.29-29.83 182.29-19.11 196.06-19.11 196.06-15.7 182.29-15.7 182.29-3.46ZM207.89-21.16L207.89-21.16 207.89 0 204.33 0 204.33-33.27 210.14-33.27 220.68-5.81 220.86-5.81 231.48-33.27 237.27-33.27 237.27 0 233.4 0 233.4-21.44Q233.4-25.28 233.73-29.45L233.73-29.45 233.52-29.45 222.15 0 219.04 0 207.77-29.47 207.59-29.47Q207.89-25.99 207.89-21.16ZM246.39-33.27L255.01-33.27Q267.47-33.27 267.47-23.56L267.47-23.56Q267.47-18.53 264.02-15.8 260.57-13.07 254.17-13.07L254.17-13.07 250.26-13.07 250.26 0 246.39 0 246.39-33.27ZM254.58-29.9L250.26-29.9 250.26-16.41 253.74-16.41Q258.85-16.41 261.18-18.05L261.18-18.05Q263.48-19.72 263.48-23.22 263.48-26.72 261.3-28.31 259.13-29.9 254.58-29.9L254.58-29.9ZM292.97-3.51L292.97 0 274.44 0 274.44-33.27 278.31-33.27 278.31-3.51 292.97-3.51ZM307.35-24.37L303.44-14.05 314.18-14.05 310.31-24.37Q309.53-26.49 308.77-29.17L308.77-29.17Q308.31-27.1 307.35-24.37L307.35-24.37ZM310.46-33.39L323.53 0 319.54 0 315.39-10.57 302.07-10.57 297.98 0 294.06 0 307.2-33.39 310.46-33.39ZM345.62-29.83L335.08-29.83 335.08 0 331.21 0 331.21-29.83 320.67-29.83 320.67-33.27 345.62-33.27 345.62-29.83ZM354.49-3.46L369.15-3.46 369.15 0 350.62 0 350.62-33.27 369.15-33.27 369.15-29.83 354.49-29.83 354.49-19.11 368.27-19.11 368.27-15.7 354.49-15.7 354.49-3.46ZM395.29-8.85L395.29-8.85Q395.29-4.45 392.12-2 388.94 0.46 383.24 0.46 377.54 0.46 374.36-1.06L374.36-1.06 374.36-4.8Q378.86-2.93 383.61-2.93L383.61-2.93Q387.43-2.93 389.41-4.37 391.4-5.81 391.4-8.49L391.4-8.49Q391.4-10.21 390.7-11.3 390.01-12.39 388.36-13.35 386.72-14.31 383.43-15.47L383.43-15.47Q378.81-17.11 376.8-19.39 374.79-21.66 374.79-25.43 374.79-29.2 377.67-31.47L377.67-31.47Q380.6-33.75 385.44-33.75 390.28-33.75 394.45-31.93L394.45-31.93 393.24-28.54Q389.12-30.28 385.25-30.28L385.25-30.28Q382.17-30.28 380.44-28.96 378.71-27.63 378.71-25.3L378.71-25.3Q378.71-23.53 379.33-22.47 379.94-21.41 381.49-20.42L381.49-20.42Q383.08-19.46 386.14-18.4L386.14-18.4Q391.4-16.53 393.32-14.38L393.32-14.38Q395.29-12.26 395.29-8.85Z" opacity="1" transform="matrix(1,0,0,1,0,0)" fill="#ffffff" class="undefined-text-0" data-fill-palette-color="primary" id="text-0"></path>
                                                </svg>
                                            </g>
                                        </svg>
                                    </g>
                                </svg>
                            </g>
                        </svg>
                    </g>
                    <g transform="matrix(1,0,0,1,166.82715781084224,0)">
                        <svg viewBox="0 0 63.84328437831544 47.84328437831544" height="47.84328437831544" width="63.84328437831544">
                            <g>
                                <svg xmlns="http://www.w3.org/2000/svg"
                                    xmlns:xlink="http://www.w3.org/1999/xlink" version="1.1" x="8" y="0" viewBox="0.5 0.5 47.099998474121094 47.099998474121094" enable-background="new 0 0 48 48" xml:space="preserve" height="47.84328437831544" width="47.84328437831544" class="icon-icon-0" data-fill-palette-color="accent" id="icon-0">
                                    <path d="M45.5 0.5H2.5c-1.1 0-2 0.9-2 2v43.1c0 1.1 0.9 2 2 2h43.1c1.1 0 2-0.9 2-2V2.5C47.5 1.4 46.6 0.5 45.5 0.5zM13.9 34c0 1.1-0.9 2-2 2s-2-0.9-2-2V14c0-1.1 0.9-2 2-2s2 0.9 2 2V34zM36.1 36h-16c-1.1 0-2-0.9-2-2s0.9-2 2-2h16c1.1 0 2 0.9 2 2S37.2 36 36.1 36zM36.1 26h-16c-1.1 0-2-0.9-2-2s0.9-2 2-2h16c1.1 0 2 0.9 2 2S37.2 26 36.1 26zM36.1 15.9h-16c-1.1 0-2-0.9-2-2s0.9-2 2-2h16c1.1 0 2 0.9 2 2S37.2 15.9 36.1 15.9z" fill="#ffffff" data-fill-palette-color="accent"></path>
                                </svg>
                            </g>
                        </svg>
                    </g>
                    <g>
                        <rect width="90.29403781084227" height="3.121965817298093" y="43.72131856101735" x="230.67044218915768" fill="#ffffff" data-fill-palette-color="secondary"></rect>
                        <rect width="90.29403781084227" height="3.121965817298093" y="43.72131856101735" x="76.53311999999997" fill="#ffffff" data-fill-palette-color="secondary"></rect>
                    </g>
                </svg>
            </g>
            <defs></defs>
        </svg>
        <rect width="395.52" height="101.42238341897152" fill="none" stroke="none" visibility="hidden"></rect>
    </g>
</svg>